<mxfile host="Electron" modified="2024-04-08T14:07:27.463Z" agent="Mozilla/5.0 (Windows NT 10.0; Win64; x64) AppleWebKit/537.36 (KHTML, like Gecko) draw.io/22.1.18 Chrome/120.0.6099.199 Electron/28.1.2 Safari/537.36" etag="sYzs7RUKA3c2zafljtIy" version="22.1.18" type="device">
  <diagram name="Страница — 1" id="fEIG4WU5zekPJVWIyXk1">
    <mxGraphModel dx="1621" dy="519" grid="1" gridSize="10" guides="1" tooltips="1" connect="1" arrows="1" fold="1" page="1" pageScale="1" pageWidth="827" pageHeight="1169" math="0" shadow="0">
      <root>
        <mxCell id="0" />
        <mxCell id="1" parent="0" />
        <mxCell id="D0QXX7iE8FEefZydnxFA-17" value="" style="edgeStyle=orthogonalEdgeStyle;rounded=0;orthogonalLoop=1;jettySize=auto;html=1;" parent="1" source="D0QXX7iE8FEefZydnxFA-1" target="D0QXX7iE8FEefZydnxFA-15" edge="1">
          <mxGeometry relative="1" as="geometry" />
        </mxCell>
        <mxCell id="D0QXX7iE8FEefZydnxFA-1" value="Start" style="ellipse;whiteSpace=wrap;html=1;fontSize=20;" parent="1" vertex="1">
          <mxGeometry x="70" y="60" width="120" height="80" as="geometry" />
        </mxCell>
        <mxCell id="D0QXX7iE8FEefZydnxFA-5" value="" style="edgeStyle=orthogonalEdgeStyle;rounded=0;orthogonalLoop=1;jettySize=auto;html=1;" parent="1" source="D0QXX7iE8FEefZydnxFA-2" target="D0QXX7iE8FEefZydnxFA-4" edge="1">
          <mxGeometry relative="1" as="geometry" />
        </mxCell>
        <mxCell id="D0QXX7iE8FEefZydnxFA-2" value="max_length &amp;lt;= 3&lt;br&gt;new_array = []&lt;br&gt;index = 0&lt;br&gt;size = array.length - 1" style="whiteSpace=wrap;html=1;fontSize=20;" parent="1" vertex="1">
          <mxGeometry x="25" y="290" width="210" height="110" as="geometry" />
        </mxCell>
        <mxCell id="yHVFKQuxYgjViP32hZJv-2" value="" style="edgeStyle=orthogonalEdgeStyle;rounded=0;orthogonalLoop=1;jettySize=auto;html=1;" edge="1" parent="1" source="D0QXX7iE8FEefZydnxFA-4" target="yHVFKQuxYgjViP32hZJv-1">
          <mxGeometry relative="1" as="geometry" />
        </mxCell>
        <mxCell id="yHVFKQuxYgjViP32hZJv-7" value="" style="edgeStyle=orthogonalEdgeStyle;rounded=0;orthogonalLoop=1;jettySize=auto;html=1;" edge="1" parent="1" source="D0QXX7iE8FEefZydnxFA-4" target="D0QXX7iE8FEefZydnxFA-22">
          <mxGeometry relative="1" as="geometry" />
        </mxCell>
        <mxCell id="D0QXX7iE8FEefZydnxFA-4" value="&lt;font style=&quot;font-size: 17px;&quot;&gt;length.array[index] &amp;lt;= max_length&lt;/font&gt;" style="rhombus;whiteSpace=wrap;html=1;fontSize=20;" parent="1" vertex="1">
          <mxGeometry x="20" y="460" width="220" height="140" as="geometry" />
        </mxCell>
        <mxCell id="D0QXX7iE8FEefZydnxFA-13" value="да" style="text;html=1;strokeColor=none;fillColor=none;align=center;verticalAlign=middle;whiteSpace=wrap;rounded=0;fontSize=17;" parent="1" vertex="1">
          <mxGeometry x="240" y="490" width="60" height="30" as="geometry" />
        </mxCell>
        <mxCell id="D0QXX7iE8FEefZydnxFA-14" value="нет" style="text;html=1;strokeColor=none;fillColor=none;align=center;verticalAlign=middle;whiteSpace=wrap;rounded=0;fontSize=17;" parent="1" vertex="1">
          <mxGeometry x="150" y="600" width="60" height="30" as="geometry" />
        </mxCell>
        <mxCell id="D0QXX7iE8FEefZydnxFA-18" value="" style="edgeStyle=orthogonalEdgeStyle;rounded=0;orthogonalLoop=1;jettySize=auto;html=1;" parent="1" source="D0QXX7iE8FEefZydnxFA-15" target="D0QXX7iE8FEefZydnxFA-2" edge="1">
          <mxGeometry relative="1" as="geometry" />
        </mxCell>
        <mxCell id="D0QXX7iE8FEefZydnxFA-15" value="array[]" style="shape=parallelogram;perimeter=parallelogramPerimeter;whiteSpace=wrap;html=1;fixedSize=1;fontSize=20;" parent="1" vertex="1">
          <mxGeometry x="52.5" y="180" width="155" height="70" as="geometry" />
        </mxCell>
        <mxCell id="yHVFKQuxYgjViP32hZJv-11" style="edgeStyle=orthogonalEdgeStyle;rounded=0;orthogonalLoop=1;jettySize=auto;html=1;exitX=0;exitY=0.5;exitDx=0;exitDy=0;entryX=0;entryY=0.5;entryDx=0;entryDy=0;" edge="1" parent="1" source="D0QXX7iE8FEefZydnxFA-22" target="D0QXX7iE8FEefZydnxFA-4">
          <mxGeometry relative="1" as="geometry" />
        </mxCell>
        <mxCell id="D0QXX7iE8FEefZydnxFA-22" value="index = index + 1" style="whiteSpace=wrap;html=1;fontSize=18;" parent="1" vertex="1">
          <mxGeometry x="10" y="650" width="240" height="60" as="geometry" />
        </mxCell>
        <mxCell id="yHVFKQuxYgjViP32hZJv-4" value="" style="edgeStyle=orthogonalEdgeStyle;rounded=0;orthogonalLoop=1;jettySize=auto;html=1;" edge="1" parent="1" source="yHVFKQuxYgjViP32hZJv-1" target="yHVFKQuxYgjViP32hZJv-3">
          <mxGeometry relative="1" as="geometry" />
        </mxCell>
        <mxCell id="yHVFKQuxYgjViP32hZJv-10" style="edgeStyle=orthogonalEdgeStyle;rounded=0;orthogonalLoop=1;jettySize=auto;html=1;entryX=1;entryY=0.5;entryDx=0;entryDy=0;" edge="1" parent="1" source="yHVFKQuxYgjViP32hZJv-1" target="D0QXX7iE8FEefZydnxFA-22">
          <mxGeometry relative="1" as="geometry">
            <mxPoint x="440" y="670" as="targetPoint" />
            <mxPoint x="470" y="550" as="sourcePoint" />
            <Array as="points">
              <mxPoint x="360" y="680" />
            </Array>
          </mxGeometry>
        </mxCell>
        <mxCell id="yHVFKQuxYgjViP32hZJv-6" value="" style="edgeStyle=orthogonalEdgeStyle;rounded=0;orthogonalLoop=1;jettySize=auto;html=1;" edge="1" parent="1" source="yHVFKQuxYgjViP32hZJv-3" target="yHVFKQuxYgjViP32hZJv-5">
          <mxGeometry relative="1" as="geometry" />
        </mxCell>
        <mxCell id="yHVFKQuxYgjViP32hZJv-3" value="new_array[]" style="shape=document;whiteSpace=wrap;html=1;boundedLbl=1;fontSize=20;" vertex="1" parent="1">
          <mxGeometry x="580" y="670" width="120" height="80" as="geometry" />
        </mxCell>
        <mxCell id="yHVFKQuxYgjViP32hZJv-5" value="End" style="ellipse;whiteSpace=wrap;html=1;fontSize=20;" vertex="1" parent="1">
          <mxGeometry x="600" y="810" width="80" height="80" as="geometry" />
        </mxCell>
        <mxCell id="yHVFKQuxYgjViP32hZJv-12" value="" style="edgeStyle=orthogonalEdgeStyle;rounded=0;orthogonalLoop=1;jettySize=auto;html=1;entryX=1;entryY=0.5;entryDx=0;entryDy=0;" edge="1" parent="1" target="yHVFKQuxYgjViP32hZJv-1">
          <mxGeometry relative="1" as="geometry">
            <mxPoint x="250" y="680" as="targetPoint" />
            <mxPoint x="470" y="550" as="sourcePoint" />
          </mxGeometry>
        </mxCell>
        <mxCell id="yHVFKQuxYgjViP32hZJv-1" value="&lt;font style=&quot;font-size: 16px;&quot;&gt;new_array.append(array[index])&lt;/font&gt;" style="whiteSpace=wrap;html=1;fontSize=20;" vertex="1" parent="1">
          <mxGeometry x="310" y="500" width="240" height="60" as="geometry" />
        </mxCell>
      </root>
    </mxGraphModel>
  </diagram>
</mxfile>
